<svg width="32" height="32" viewBox="0 0 32 32" xmlns="http://www.w3.org/2000/svg"><path fill="#66c" d="m13.757 19.868c-.416 0-.832-.159-1.149-.476-2.973-2.973-2.973-7.81 0-10.783l6-6c1.44-1.44 3.355-2.233 5.392-2.233s3.951.793 5.392 2.233c2.973 2.973 2.973 7.81 0 10.783l-2.743 2.743c-.635.635-1.663.635-2.298 0s-.635-1.663 0-2.298l2.743-2.743c1.706-1.706 1.706-4.481 0-6.187-.826-.826-1.925-1.281-3.094-1.281s-2.267.455-3.094 1.281l-6 6c-1.706 1.706-1.706 4.481 0 6.187.635.635.635 1.663 0 2.298-.317.317-.733.476-1.149.476z"/><path fill="#66c" d="m8 31.625c-2.037 0-3.952-.793-5.392-2.233-2.973-2.973-2.973-7.81 0-10.783l2.743-2.743c.635-.635 1.664-.635 2.298 0s.635 1.663 0 2.298l-2.743 2.743c-1.706 1.706-1.706 4.481 0 6.187.826.826 1.925 1.281 3.094 1.281s2.267-.455 3.094-1.281l6-6c1.706-1.706 1.706-4.481 0-6.187-.635-.635-.635-1.663 0-2.298s1.663-.635 2.298 0c2.973 2.973 2.973 7.81 0 10.783l-6 6c-1.44 1.44-3.355 2.233-5.392 2.233z"/></svg>
